<svg width="472" height="24" viewBox="0 0 472 24" fill="none" xmlns="http://www.w3.org/2000/svg"><path fill-rule="evenodd" clip-rule="evenodd" d="M12.707 3.043a1 1 0 00-1.414 0l-6.75 6.75 1.414 1.414L11 6.164V20.25h2V6.164l5.043 5.043 1.414-1.414-6.75-6.75zM77 17.836l5.043-5.043 1.414 1.414-6.75 6.75a1 1 0 01-1.414 0l-6.75-6.75 1.414-1.414L75 17.836V3.75h2v14.086zM137.793 4.543l-6.75 6.75a1 1 0 000 1.414l6.75 6.75 1.414-1.414L134.164 13h14.086v-2h-14.086l5.043-5.043-1.414-1.414zM209.836 11l-5.043-5.043 1.414-1.414 6.75 6.75a1 1 0 010 1.414l-6.75 6.75-1.414-1.414L209.836 13H195.75v-2h14.086zM262 5a1 1 0 00-1 1v9.75h2V8.414l10.293 10.293 1.414-1.414L264.414 7h7.336V5H262zM335.586 7h-7.336V5H338a1 1 0 011 1v9.75h-2V8.414l-10.293 10.293-1.414-1.414L335.586 7zM392.414 17h7.336v2H390a1 1 0 01-1-1V8.25h2v7.336l10.293-10.293 1.414 1.414L392.414 17zM463.586 17L453.293 6.707l1.414-1.414L465 15.586V8.25h2V18a1 1 0 01-1 1h-9.75v-2h7.336z" fill="#0F0F0F"></path><rect x="0.5" y="0.5" width="471" height="23" rx="4.5" stroke="#7B61FF" stroke-dasharray="10 5"></rect></svg>