<svg xmlns="http://www.w3.org/2000/svg" xmlns:xlink="http://www.w3.org/1999/xlink" viewBox="0 0 224 224" width="224" height="224" preserveAspectRatio="xMidYMid meet" style="width: 100%; height: 100%; transform: translate3d(0px, 0px, 0px); content-visibility: visible;"><defs><clipPath id="__lottie_element_42"><rect width="224" height="224" x="0" y="0"></rect></clipPath><clipPath id="__lottie_element_134"><path d="M0,0 L224,0 L224,224 L0,224z"></path></clipPath></defs><g clip-path="url(#__lottie_element_42)"><g transform="matrix(1,0,0,1,112,112)" opacity="1" style="display: block;"><g opacity="1" transform="matrix(1,0,0,1,0,0)"><path fill="rgb(245,245,245)" fill-opacity="1" d=" M112,-112 C112,-112 112,112 112,112 C112,112 -112,112 -112,112 C-112,112 -112,-112 -112,-112 C-112,-112 112,-112 112,-112z"></path></g></g><g clip-path="url(#__lottie_element_134)" style="display: block;" transform="matrix(1,0,0,1,-0.6449966430664062,4.010719299316406)" opacity="1"><g style="display: block;" transform="matrix(1,0,0,1,105.05899810791016,155.7259979248047)" opacity="1"><g opacity="1" transform="matrix(1,0,0,1,0,0)"><path fill="rgb(15,15,15)" fill-opacity="1" d=" M-38.847999572753906,5.671000003814697 C-38.847999572753906,5.671000003814697 38.847999572753906,50.472999572753906 38.847999572753906,50.472999572753906 C38.847999572753906,50.472999572753906 38.847999572753906,-9.244000434875488 38.847999572753906,-9.244000434875488 C38.847999572753906,-9.244000434875488 -38.847999572753906,-50.472999572753906 -38.847999572753906,-50.472999572753906 C-38.847999572753906,-50.472999572753906 -38.847999572753906,5.671000003814697 -38.847999572753906,5.671000003814697z"></path></g></g><g style="display: block;" transform="matrix(1,0,0,1,112.00499725341797,54.57899856567383)" opacity="1"><g opacity="1" transform="matrix(1,0,0,1,0,0)"><path fill="rgb(117,117,117)" fill-opacity="1" d=" M63.999000549316406,5.982999801635742 C63.999000549316406,5.982999801635742 9.95300006866455,37.17499923706055 9.95300006866455,37.17499923706055 C9.95300006866455,37.17499923706055 -63.999000549316406,-5.4730000495910645 -63.999000549316406,-5.4730000495910645 C-63.999000549316406,-5.4730000495910645 -9.10200023651123,-37.17499923706055 -9.10200023651123,-37.17499923706055 C-9.10200023651123,-37.17499923706055 63.999000549316406,5.982999801635742 63.999000549316406,5.982999801635742z"></path></g></g><g style="display: block;" transform="matrix(1,0,0,1,84.97699737548828,123.33000183105469)" opacity="1"><g opacity="1" transform="matrix(1,0,0,1,0,0)"><path fill="rgb(175,175,175)" fill-opacity="1" d=" M-3.0999999046325684,11.031999588012695 C-3.0999999046325684,11.031999588012695 -3.0999999046325684,-13.366999626159668 -3.0999999046325684,-13.366999626159668 C-3.0999999046325684,-13.366999626159668 -3.0999999046325684,-13.345999717712402 -3.0999999046325684,-13.345999717712402 C-3.0999999046325684,-12.756999969482422 -2.799999952316284,-12.147000312805176 -2.2009999752044678,-11.684000015258789 C-0.9860000014305115,-10.758999824523926 0.9539999961853027,-10.758999824523926 2.1689999103546143,-11.684000015258789 C2.7839999198913574,-12.168000221252441 3.0840001106262207,-12.777999877929688 3.0999999046325684,-13.387999534606934 C3.0999999046325684,-13.387999534606934 3.0999999046325684,10.989999771118164 3.0999999046325684,10.989999771118164 C3.0999999046325684,11.621000289916992 2.799999952316284,12.230999946594238 2.184999942779541,12.694000244140625 C0.9700000286102295,13.619000434875488 -0.9860000014305115,13.619000434875488 -2.184999942779541,12.694000244140625 C-2.7839999198913574,12.251999855041504 -3.0840001106262207,11.642000198364258 -3.0999999046325684,11.031999588012695z"></path></g></g><g style="display: block;" transform="matrix(1,0,0,1,148.97999572753906,133.35000610351562)" opacity="1"><g opacity="1" transform="matrix(1,0,0,1,0,0)"><path fill="rgb(84,84,84)" fill-opacity="1" d=" M27.023000717163086,54.301998138427734 C27.023000717163086,54.301998138427734 27.023000717163086,-72.84600067138672 27.023000717163086,-72.84600067138672 C27.023000717163086,-72.84600067138672 -23.16699981689453,-43.867000579833984 -23.16699981689453,-43.867000579833984 C-23.16699981689453,-43.867000579833984 -27.023000717163086,-41.597999572753906 -27.023000717163086,-41.597999572753906 C-27.023000717163086,-41.597999572753906 -27.023000717163086,17.04199981689453 -27.023000717163086,17.04199981689453 C-26.05900001525879,17.04199981689453 -25.150999069213867,16.871000289916992 -24.243999481201172,16.5310001373291 C-18.232999801635742,14.14900016784668 -5.076000213623047,6.0960001945495605 -5.076000213623047,27.98699951171875 C-5.076000213623047,27.98699951171875 -5.076000213623047,72.84600067138672 -5.076000213623047,72.84600067138672 C-5.076000213623047,72.84600067138672 27.023000717163086,54.301998138427734 27.023000717163086,54.301998138427734z"></path></g></g><g style="display: block;" transform="matrix(1,0,0,1,129.093994140625,116.9280014038086)" opacity="1"><g opacity="1" transform="matrix(1,0,0,1,0,0)"><path fill="rgb(117,117,117)" fill-opacity="1" d=" M-4.359000205993652,32.952999114990234 C-1.437999963760376,31.79599952697754 3.1710000038146973,29.304000854492188 7.13700008392334,29.55500030517578 C7.13700008392334,29.55500030517578 7.13700008392334,-33.4630012512207 7.13700008392334,-33.4630012512207 C7.13700008392334,-33.4630012512207 -3.2790000438690186,-27.444000244140625 -3.2790000438690186,-27.444000244140625 C-3.2790000438690186,-27.444000244140625 -7.13700008392334,-25.176000595092773 -7.13700008392334,-25.176000595092773 C-7.13700008392334,-25.176000595092773 -7.13700008392334,33.4630012512207 -7.13700008392334,33.4630012512207 C-6.172999858856201,33.4630012512207 -5.265999794006348,33.292999267578125 -4.359000205993652,32.952999114990234z"></path></g></g><g style="display: block;" transform="matrix(1,0,0,1,84.98200225830078,99.72200012207031)" opacity="1"><g opacity="1" transform="matrix(1,0,0,1,0,0)"><path fill="rgb(51,51,51)" fill-opacity="1" d=" M36.97600173950195,50.672000885009766 C36.97600173950195,50.672000885009766 36.97600173950195,-7.9679999351501465 36.97600173950195,-7.9679999351501465 C36.97600173950195,-7.9679999351501465 33.0629997253418,-10.236000061035156 33.0629997253418,-10.236000061035156 C33.0629997253418,-10.236000061035156 -36.97600173950195,-50.672000885009766 -36.97600173950195,-50.672000885009766 C-36.97600173950195,-50.672000885009766 -36.97600173950195,5.585999965667725 -36.97600173950195,5.585999965667725 C-36.97600173950195,7.741000175476074 -35.89899826049805,9.668999671936035 -34.08399963378906,10.746999740600586 C-33.97100067138672,10.803999900817871 -33.970001220703125,10.859999656677246 -33.970001220703125,10.859999656677246 C-33.970001220703125,10.859999656677246 33.233001708984375,49.6510009765625 33.233001708984375,49.6510009765625 C33.233001708984375,49.6510009765625 33.290000915527344,49.6510009765625 33.290000915527344,49.70800018310547 C34.42399978637695,50.332000732421875 35.672000885009766,50.672000885009766 36.97600173950195,50.672000885009766z"></path></g></g><g style="display: block;" transform="matrix(1,0,0,1,92.12200164794922,66.25299835205078)" opacity="1"><g opacity="1" transform="matrix(1,0,0,1,0,0)"><path fill="rgb(175,175,175)" fill-opacity="1" d=" M-29.79800033569336,-25.468000411987305 C-29.79800033569336,-25.468000411987305 -44.1150016784668,-17.20199966430664 -44.1150016784668,-17.20199966430664 C-44.1150016784668,-17.20199966430664 29.79800033569336,25.468000411987305 29.79800033569336,25.468000411987305 C29.79800033569336,25.468000411987305 44.1150016784668,17.20199966430664 44.1150016784668,17.20199966430664 C44.1150016784668,17.20199966430664 -29.79800033569336,-25.468000411987305 -29.79800033569336,-25.468000411987305z"></path></g></g><g style="display: block;" transform="matrix(1,0,0,1,83.18499755859375,112.01300048828125)" opacity="1"><g opacity="1" transform="matrix(1,0,0,1,0,0)"><path stroke-linecap="butt" stroke-linejoin="miter" fill-opacity="0" stroke-miterlimit="4" stroke="rgb(238,238,238)" stroke-opacity="1" stroke-width="2" d=" M0,8.265999794006348 C3.9539999961853027,10.548999786376953 7.1579999923706055,8.697999954223633 7.1579999923706055,4.132999897003174 C7.1579999923706055,-0.4320000112056732 3.9539999961853027,-5.982999801635742 0,-8.265999794006348 C-3.9539999961853027,-10.548999786376953 -7.1579999923706055,-8.697999954223633 -7.1579999923706055,-4.132999897003174 C-7.1579999923706055,0.4320000112056732 -3.9539999961853027,5.982999801635742 0,8.265999794006348z"></path></g></g></g><g transform="matrix(1,0,0,1,32.97999954223633,74.71744537353516)" opacity="1" style="display: none;"><g opacity="1" transform="matrix(1,0,0,1,0,0)"><path fill="rgb(7,121,76)" fill-opacity="1" d=" M-12.553000450134277,12.623000144958496 C-12.553000450134277,12.623000144958496 -12.553000450134277,18.1299991607666 -12.553000450134277,18.1299991607666 C-12.553000450134277,18.1299991607666 13.020000457763672,18.1299991607666 13.020000457763672,18.1299991607666 C13.020000457763672,18.1299991607666 13.020000457763672,11.36299991607666 13.020000457763672,11.36299991607666 C13.020000457763672,11.36299991607666 -1.399999976158142,11.36299991607666 -1.399999976158142,11.36299991607666 C-1.399999976158142,11.36299991607666 3.312999963760376,7.0229997634887695 3.312999963760376,7.0229997634887695 C5.614999771118164,4.84499979019165 7.559999942779541,2.5739998817443848 9.147000312805176,0.20999999344348907 C10.734000205993652,-2.1540000438690186 11.527000427246094,-4.704999923706055 11.527000427246094,-7.442999839782715 C11.527000427246094,-9.621000289916992 11.013999938964844,-11.519000053405762 9.987000465393066,-13.13700008392334 C8.991000175476074,-14.755000114440918 7.605999946594238,-15.982999801635742 5.833000183105469,-16.822999954223633 C4.059999942779541,-17.694000244140625 2.0380001068115234,-18.1299991607666 -0.2329999953508377,-18.1299991607666 C-4.245999813079834,-18.1299991607666 -7.357999801635742,-16.993999481201172 -9.567000389099121,-14.722999572753906 C-11.744999885559082,-12.45199966430664 -12.895999908447266,-9.138999938964844 -13.020000457763672,-4.7829999923706055 C-13.020000457763672,-4.7829999923706055 -6.206999778747559,-4.7829999923706055 -6.206999778747559,-4.7829999923706055 C-6.083000183105469,-7.178999900817871 -5.5370001792907715,-8.937000274658203 -4.572999954223633,-10.057000160217285 C-3.5769999027252197,-11.208000183105469 -2.1630001068115234,-11.782999992370605 -0.3269999921321869,-11.782999992370605 C1.3839999437332153,-11.782999992370605 2.6440000534057617,-11.331999778747559 3.453000068664551,-10.430000305175781 C4.293000221252441,-9.527999877929688 4.7129998207092285,-8.314000129699707 4.7129998207092285,-6.789999961853027 C4.7129998207092285,-5.389999866485596 4.199999809265137,-3.927000045776367 3.1730000972747803,-2.4030001163482666 C2.177000045776367,-0.8790000081062317 0.6230000257492065,0.8159999847412109 -1.4930000305175781,2.683000087738037 C-1.4930000305175781,2.683000087738037 -12.553000450134277,12.623000144958496 -12.553000450134277,12.623000144958496z"></path></g></g><g transform="matrix(1,0,0,1,56.529998779296875,76.46234893798828)" opacity="1" style="display: none;"><g opacity="1" transform="matrix(1,0,0,1,0,0)"><path fill="rgb(7,121,76)" fill-opacity="1" d=" M-7.4670000076293945,3.009999990463257 C-7.4670000076293945,3.009999990463257 7.4670000076293945,3.009999990463257 7.4670000076293945,3.009999990463257 C7.4670000076293945,3.009999990463257 7.4670000076293945,-3.009999990463257 7.4670000076293945,-3.009999990463257 C7.4670000076293945,-3.009999990463257 -7.4670000076293945,-3.009999990463257 -7.4670000076293945,-3.009999990463257 C-7.4670000076293945,-3.009999990463257 -7.4670000076293945,3.009999990463257 -7.4670000076293945,3.009999990463257z"></path></g></g><g transform="matrix(1,0,0,1,78.46700286865234,82.50657653808594)" opacity="1" style="display: none;"><g opacity="1" transform="matrix(1,0,0,1,0,0)"><path fill="rgb(7,121,76)" fill-opacity="1" d=" M-10.032999992370605,11.970000267028809 C-10.032999992370605,11.970000267028809 -10.032999992370605,17.80299949645996 -10.032999992370605,17.80299949645996 C-10.032999992370605,17.80299949645996 -5.460000038146973,17.80299949645996 -5.460000038146973,17.80299949645996 C-3.1579999923706055,17.80299949645996 -1.3839999437332153,17.274999618530273 -0.14000000059604645,16.216999053955078 C1.1360000371932983,15.1899995803833 2.193000078201294,13.416999816894531 3.0329999923706055,10.897000312805176 C3.0329999923706055,10.897000312805176 12.833000183105469,-17.80299949645996 12.833000183105469,-17.80299949645996 C12.833000183105469,-17.80299949645996 5.2270002365112305,-17.80299949645996 5.2270002365112305,-17.80299949645996 C5.2270002365112305,-17.80299949645996 0.3269999921321869,1.190000057220459 0.3269999921321869,1.190000057220459 C0.3269999921321869,1.190000057220459 -5.2270002365112305,-17.80299949645996 -5.2270002365112305,-17.80299949645996 C-5.2270002365112305,-17.80299949645996 -12.833000183105469,-17.80299949645996 -12.833000183105469,-17.80299949645996 C-12.833000183105469,-17.80299949645996 -3.312999963760376,8.75 -3.312999963760376,8.75 C-3.312999963760376,8.75 -3.7799999713897705,9.963000297546387 -3.7799999713897705,9.963000297546387 C-4.091000080108643,10.772000312805176 -4.494999885559082,11.300999641418457 -4.993000030517578,11.550000190734863 C-5.491000175476074,11.829999923706055 -6.159999847412109,11.970000267028809 -7,11.970000267028809 C-7,11.970000267028809 -10.032999992370605,11.970000267028809 -10.032999992370605,11.970000267028809z"></path></g></g><g transform="matrix(1,0,0,1,106.9000015258789,-91.95413208007812)" opacity="1" style="display: none;"><g opacity="1" transform="matrix(1,0,0,1,0,0)"><path fill="rgb(7,121,76)" fill-opacity="1" d=" M5.086999893188477,-6.066999912261963 C5.616000175476074,-5.506999969482422 5.988999843597412,-4.714000225067139 6.206999778747559,-3.687000036239624 C6.206999778747559,-3.687000036239624 -5.7870001792907715,-3.687000036239624 -5.7870001792907715,-3.687000036239624 C-5.568999767303467,-4.683000087738037 -5.196000099182129,-5.47599983215332 -4.666999816894531,-6.066999912261963 C-3.5160000324249268,-7.498000144958496 -1.8830000162124634,-8.213000297546387 0.2329999953508377,-8.213000297546387 C2.3489999771118164,-8.213000297546387 3.9670000076293945,-7.498000144958496 5.086999893188477,-6.066999912261963z M-6.953000068664551,11.993000030517578 C-4.86899995803833,13.144000053405762 -2.489000082015991,13.720000267028809 0.18700000643730164,13.720000267028809 C3.6089999675750732,13.720000267028809 6.39300012588501,12.833000183105469 8.539999961853027,11.0600004196167 C10.687000274658203,9.286999702453613 12.163999557495117,7 12.972999572753906,4.199999809265137 C12.972999572753906,4.199999809265137 5.833000183105469,4.199999809265137 5.833000183105469,4.199999809265137 C5.428999900817871,5.196000099182129 4.760000228881836,6.019999980926514 3.8269999027252197,6.672999858856201 C2.8940000534057617,7.295000076293945 1.7890000343322754,7.60699987411499 0.5130000114440918,7.60699987411499 C-1.8830000162124634,7.60699987411499 -3.6710000038146973,6.642000198364258 -4.853000164031982,4.7129998207092285 C-5.132999897003174,4.309000015258789 -5.381999969482422,3.8269999027252197 -5.599999904632568,3.2669999599456787 C-5.817999839782715,2.6760001182556152 -5.958000183105469,2.0840001106262207 -6.019999980926514,1.4930000305175781 C-6.019999980926514,1.4930000305175781 13.392999649047852,1.4930000305175781 13.392999649047852,1.4930000305175781 C13.392999649047852,1.4930000305175781 13.392999649047852,0.09300000220537186 13.392999649047852,0.09300000220537186 C13.392999649047852,-3.0179998874664307 12.770999908447266,-5.599999904632568 11.527000427246094,-7.6529998779296875 C10.282999992370605,-9.737000465393066 8.633000373840332,-11.262999534606934 6.579999923706055,-12.22700023651123 C4.558000087738037,-13.222999572753906 2.3489999771118164,-13.720000267028809 -0.04699999839067459,-13.720000267028809 C-2.9709999561309814,-13.720000267028809 -5.445000171661377,-13.050999641418457 -7.4670000076293945,-11.713000297546387 C-9.458000183105469,-10.406000137329102 -10.951000213623047,-8.680000305175781 -11.946999549865723,-6.5329999923706055 C-12.91100025177002,-4.416999816894531 -13.392999649047852,-2.177000045776367 -13.392999649047852,0.18700000643730164 C-13.392999649047852,2.7690000534057617 -12.833000183105469,5.086999893188477 -11.713000297546387,7.139999866485596 C-10.593000411987305,9.192999839782715 -9.005999565124512,10.810999870300293 -6.953000068664551,11.993000030517578z"></path></g></g><g transform="matrix(1,0,0,1,135.44000244140625,-88.92951965332031)" opacity="1" style="display: none;"><g opacity="1" transform="matrix(1,0,0,1,0,0)"><path fill="rgb(7,121,76)" fill-opacity="1" d=" M1.7730000019073486,7.559999942779541 C0.8090000152587891,8.027000427246094 -0.21799999475479126,8.260000228881836 -1.3070000410079956,8.260000228881836 C-2.3340001106262207,8.260000228881836 -3.1740000247955322,8.043000221252441 -3.8269999027252197,7.60699987411499 C-4.480000019073486,7.139999866485596 -4.807000160217285,6.4710001945495605 -4.807000160217285,5.599999904632568 C-4.807000160217285,4.883999824523926 -4.541999816894531,4.26200008392334 -4.013000011444092,3.7330000400543213 C-3.6710000038146973,3.421999931335449 -3.250999927520752,3.1579999923706055 -2.753000020980835,2.940000057220459 C-2.2239999771118164,2.7219998836517334 -1.5089999437332153,2.5199999809265137 -0.6069999933242798,2.3329999446868896 C-0.6069999933242798,2.3329999446868896 4.947000026702881,1.2599999904632568 4.947000026702881,1.2599999904632568 C4.885000228881836,2.9709999561309814 4.636000156402588,4.309000015258789 4.199999809265137,5.2729997634887695 C3.7639999389648438,6.236999988555908 2.9549999237060547,7 1.7730000019073486,7.559999942779541z M-9.427000045776367,11.666999816894531 C-7.809000015258789,13.03600025177002 -5.739999771118164,13.720000267028809 -3.2200000286102295,13.720000267028809 C-0.7310000061988831,13.720000267028809 1.2289999723434448,13.237000465393066 2.6600000858306885,12.27299976348877 C3.562000036239624,11.713000297546387 4.26200008392334,10.873000144958496 4.760000228881836,9.753000259399414 C4.760000228881836,9.753000259399414 4.760000228881836,13.15999984741211 4.760000228881836,13.15999984741211 C4.760000228881836,13.15999984741211 11.852999687194824,13.15999984741211 11.852999687194824,13.15999984741211 C11.852999687194824,13.15999984741211 11.852999687194824,0.09300000220537186 11.852999687194824,0.09300000220537186 C11.852999687194824,-1.8049999475479126 11.791000366210938,-3.3450000286102295 11.666999816894531,-4.5269999504089355 C11.574000358581543,-5.739999771118164 11.293999671936035,-6.921999931335449 10.82699966430664,-8.072999954223633 C10.390999794006348,-9.223999977111816 9.675999641418457,-10.236000061035156 8.680000305175781,-11.107000350952148 C7.684000015258789,-11.977999687194824 6.486999988555908,-12.630999565124512 5.086999893188477,-13.067000389099121 C3.687000036239624,-13.503000259399414 2.194000005722046,-13.720000267028809 0.6069999933242798,-13.720000267028809 C-1.1970000267028809,-13.720000267028809 -2.9240000247955322,-13.376999855041504 -4.572999954223633,-12.692999839782715 C-6.190999984741211,-12.039999961853027 -7.576000213623047,-11.029000282287598 -8.72700023651123,-9.65999984741211 C-9.847000122070312,-8.291000366210938 -10.562000274658203,-6.59499979019165 -10.873000144958496,-4.572999954223633 C-10.873000144958496,-4.572999954223633 -3.8269999027252197,-4.572999954223633 -3.8269999027252197,-4.572999954223633 C-3.6089999675750732,-5.723999977111816 -3.0959999561309814,-6.626999855041504 -2.2869999408721924,-7.28000020980835 C-1.4780000448226929,-7.964000225067139 -0.5289999842643738,-8.307000160217285 0.5600000023841858,-8.307000160217285 C1.9290000200271606,-8.307000160217285 2.9560000896453857,-7.934000015258789 3.640000104904175,-7.186999797821045 C4.38700008392334,-6.408999919891357 4.776000022888184,-5.289000034332275 4.807000160217285,-3.8269999027252197 C4.807000160217285,-3.8269999027252197 -2.5199999809265137,-2.4730000495910645 -2.5199999809265137,-2.4730000495910645 C-5.257999897003174,-1.975000023841858 -7.310999870300293,-1.2599999904632568 -8.680000305175781,-0.3269999921321869 C-10.795999526977539,1.1039999723434448 -11.852999687194824,3.1570000648498535 -11.852999687194824,5.833000183105469 C-11.852999687194824,8.321999549865723 -11.045000076293945,10.267000198364258 -9.427000045776367,11.666999816894531z"></path></g></g><g transform="matrix(1,0,0,1,159.99600219726562,-81.95645904541016)" opacity="1" style="display: none;"><g opacity="1" transform="matrix(1,0,0,1,0,0)"><path fill="rgb(7,121,76)" fill-opacity="1" d=" M-7.583000183105469,-12.880000114440918 C-7.583000183105469,-12.880000114440918 -7.583000183105469,13.4399995803833 -7.583000183105469,13.4399995803833 C-7.583000183105469,13.4399995803833 -0.49000000953674316,13.4399995803833 -0.49000000953674316,13.4399995803833 C-0.49000000953674316,13.4399995803833 -0.49000000953674316,1.8200000524520874 -0.49000000953674316,1.8200000524520874 C-0.49000000953674316,0.04699999839067459 -0.33399999141693115,-1.3839999437332153 -0.023000000044703484,-2.4730000495910645 C0.2879999876022339,-3.5929999351501465 0.8009999990463257,-4.495999813079834 1.5169999599456787,-5.179999828338623 C2.575000047683716,-6.176000118255615 4.098999977111816,-6.672999858856201 6.090000152587891,-6.672999858856201 C6.090000152587891,-6.672999858856201 7.583000183105469,-6.672999858856201 7.583000183105469,-6.672999858856201 C7.583000183105469,-6.672999858856201 7.583000183105469,-13.4399995803833 7.583000183105469,-13.4399995803833 C7.583000183105469,-13.4399995803833 6.603000164031982,-13.4399995803833 6.603000164031982,-13.4399995803833 C5.046999931335449,-13.4399995803833 3.694000005722046,-13.175999641418457 2.5429999828338623,-12.647000312805176 C1.4229999780654907,-12.118000030517578 0.41200000047683716,-11.199999809265137 -0.49000000953674316,-9.892999649047852 C-0.49000000953674316,-9.892999649047852 -0.49000000953674316,-12.880000114440918 -0.49000000953674316,-12.880000114440918 C-0.49000000953674316,-12.880000114440918 -7.583000183105469,-12.880000114440918 -7.583000183105469,-12.880000114440918z"></path></g></g><g transform="matrix(1,0,0,1,181.87600708007812,-92.16000366210938)" opacity="1" style="display: none;"><g opacity="1" transform="matrix(1,0,0,1,0,0)"><path fill="rgb(7,121,76)" fill-opacity="1" d=" M-7.6529998779296875,11.38700008392334 C-5.195000171661377,12.942999839782715 -2.3489999771118164,13.720000267028809 0.8870000243186951,13.720000267028809 C3.1579999923706055,13.720000267028809 5.118000030517578,13.36299991607666 6.767000198364258,12.647000312805176 C8.446999549865723,11.930999755859375 9.722000122070312,10.920000076293945 10.593000411987305,9.61299991607666 C11.494999885559082,8.305999755859375 11.946999549865723,6.797999858856201 11.946999549865723,5.086999893188477 C11.946999549865723,3.188999891281128 11.449000358581543,1.7109999656677246 10.45300006866455,0.652999997138977 C9.456999778747559,-0.4359999895095825 8.260000228881836,-1.2130000591278076 6.860000133514404,-1.6799999475479126 C5.491000175476074,-2.1470000743865967 3.749000072479248,-2.566999912261963 1.6330000162124634,-2.940000057220459 C-0.3580000102519989,-3.2820000648498535 -1.8200000524520874,-3.6559998989105225 -2.753000020980835,-4.059999942779541 C-3.686000108718872,-4.464000225067139 -4.1529998779296875,-5.1020002365112305 -4.1529998779296875,-5.9730000495910645 C-4.1529998779296875,-6.689000129699707 -3.8259999752044678,-7.249000072479248 -3.1730000972747803,-7.6529998779296875 C-2.5199999809265137,-8.08899974822998 -1.6330000162124634,-8.307000160217285 -0.5130000114440918,-8.307000160217285 C0.7310000061988831,-8.307000160217285 1.8049999475479126,-8.01099967956543 2.7070000171661377,-7.420000076293945 C3.640000104904175,-6.828999996185303 4.2779998779296875,-5.895999908447266 4.619999885559082,-4.619999885559082 C4.619999885559082,-4.619999885559082 11.293000221252441,-4.619999885559082 11.293000221252441,-4.619999885559082 C10.826000213623047,-7.513000011444092 9.53600025177002,-9.753000259399414 7.420000076293945,-11.34000015258789 C5.335999965667725,-12.927000045776367 2.690999984741211,-13.720000267028809 -0.5130000114440918,-13.720000267028809 C-3.4690001010894775,-13.720000267028809 -5.941999912261963,-13.050999641418457 -7.933000087738037,-11.713000297546387 C-9.892999649047852,-10.406000137329102 -10.873000144958496,-8.430999755859375 -10.873000144958496,-5.7870001792907715 C-10.873000144958496,-3.9200000762939453 -10.390999794006348,-2.441999912261963 -9.427000045776367,-1.3530000448226929 C-8.463000297546387,-0.2639999985694885 -7.310999870300293,0.5130000114440918 -5.9730000495910645,0.9800000190734863 C-4.604000091552734,1.4470000267028809 -2.8929998874664307,1.8830000162124634 -0.8399999737739563,2.2869999408721924 C1.1820000410079956,2.7230000495910645 2.6600000858306885,3.1429998874664307 3.5929999351501465,3.546999931335449 C4.526000022888184,3.9509999752044678 4.993000030517578,4.619999885559082 4.993000030517578,5.552999973297119 C4.993000030517578,6.39300012588501 4.589000225067139,7.061999797821045 3.7799999713897705,7.559999942779541 C3.002000093460083,8.027000427246094 2.00600004196167,8.260000228881836 0.7929999828338623,8.260000228881836 C-0.6069999933242798,8.260000228881836 -1.8350000381469727,7.916999816894531 -2.8929998874664307,7.232999801635742 C-3.9200000762939453,6.548999786376953 -4.636000156402588,5.538000106811523 -5.039999961853027,4.199999809265137 C-5.039999961853027,4.199999809265137 -11.946999549865723,4.199999809265137 -11.946999549865723,4.199999809265137 C-11.543000221252441,7.435999870300293 -10.111000061035156,9.831000328063965 -7.6529998779296875,11.38700008392334z"></path></g></g><g transform="matrix(1,0,0,1,201.2209930419922,-78.01609802246094)" opacity="1" style="display: none;"><g opacity="1" transform="matrix(1,0,0,1,0,0)"><path fill="rgb(7,121,76)" fill-opacity="1" d=" M-0.7699999809265137,3.127000093460083 C-1.6720000505447388,3.749000072479248 -2.885999917984009,4.076000213623047 -4.409999847412109,4.10699987411499 C-4.409999847412109,4.10699987411499 -4.409999847412109,7.747000217437744 -4.409999847412109,7.747000217437744 C-1.2680000066757202,7.559999942779541 1.034999966621399,6.59499979019165 2.496999979019165,4.853000164031982 C3.990000009536743,3.1419999599456787 4.736999988555908,1.0889999866485596 4.736999988555908,-1.3070000410079956 C4.736999988555908,-3.2360000610351562 4.301000118255615,-4.790999889373779 3.430000066757202,-5.9730000495910645 C2.559000015258789,-7.15500020980835 1.2990000247955322,-7.747000217437744 -0.3499999940395355,-7.747000217437744 C-1.687999963760376,-7.747000217437744 -2.760999917984009,-7.357999801635742 -3.569999933242798,-6.579999923706055 C-4.3480000495910645,-5.833000183105469 -4.736999988555908,-4.836999893188477 -4.736999988555908,-3.5929999351501465 C-4.736999988555908,-2.441999912261963 -4.409999847412109,-1.49399995803833 -3.756999969482422,-0.746999979019165 C-3.072999954223633,-0.03099999949336052 -2.2790000438690186,0.3269999921321869 -1.3769999742507935,0.3269999921321869 C-0.3499999940395355,0.3269999921321869 0.4429999887943268,-0.03099999949336052 1.003000020980835,-0.746999979019165 C1.003000020980835,-0.4359999895095825 0.972000002861023,0 0.9100000262260437,0.5600000023841858 C0.6919999718666077,1.6799999475479126 0.13199999928474426,2.5360000133514404 -0.7699999809265137,3.127000093460083z"></path></g></g><g transform="matrix(1,0,0,1,31.533000946044922,-15.520895004272461)" opacity="1" style="display: none;"><g opacity="1" transform="matrix(1,0,0,1,0,0)"><path fill="rgb(7,121,76)" fill-opacity="1" d=" M-11.199999809265137,2.240000009536743 C-11.199999809265137,2.240000009536743 -2.240000009536743,16.65999984741211 -2.240000009536743,16.65999984741211 C-2.240000009536743,16.65999984741211 8.027000427246094,16.65999984741211 8.027000427246094,16.65999984741211 C8.027000427246094,16.65999984741211 -1.3070000410079956,3.0329999923706055 -1.3070000410079956,3.0329999923706055 C0.4350000023841858,2.4730000495910645 1.8819999694824219,1.6019999980926514 3.0329999923706055,0.41999998688697815 C4.184000015258789,-0.7929999828338623 4.9629998207092285,-2.25600004196167 5.367000102996826,-3.9670000076293945 C5.367000102996826,-3.9670000076293945 11.199999809265137,-3.9670000076293945 11.199999809265137,-3.9670000076293945 C11.199999809265137,-3.9670000076293945 11.199999809265137,-8.72700023651123 11.199999809265137,-8.72700023651123 C11.199999809265137,-8.72700023651123 5.506999969482422,-8.72700023651123 5.506999969482422,-8.72700023651123 C5.382999897003174,-9.317999839782715 5.2270002365112305,-9.878000259399414 5.039999961853027,-10.406999588012695 C4.853000164031982,-10.935999870300293 4.619999885559082,-11.416999816894531 4.340000152587891,-11.852999687194824 C4.340000152587891,-11.852999687194824 11.199999809265137,-11.852999687194824 11.199999809265137,-11.852999687194824 C11.199999809265137,-11.852999687194824 11.199999809265137,-16.65999984741211 11.199999809265137,-16.65999984741211 C11.199999809265137,-16.65999984741211 -11.199999809265137,-16.65999984741211 -11.199999809265137,-16.65999984741211 C-11.199999809265137,-16.65999984741211 -11.199999809265137,-11.852999687194824 -11.199999809265137,-11.852999687194824 C-11.199999809265137,-11.852999687194824 -7.933000087738037,-11.852999687194824 -7.933000087738037,-11.852999687194824 C-7.15500020980835,-11.852999687194824 -6.4710001945495605,-11.729000091552734 -5.880000114440918,-11.479999542236328 C-5.257999897003174,-11.230999946594238 -4.74399995803833,-10.87399959564209 -4.340000152587891,-10.406999588012695 C-3.9040000438690186,-9.9399995803833 -3.624000072479248,-9.380000114440918 -3.5,-8.72700023651123 C-3.5,-8.72700023651123 -11.199999809265137,-8.72700023651123 -11.199999809265137,-8.72700023651123 C-11.199999809265137,-8.72700023651123 -11.199999809265137,-3.9670000076293945 -11.199999809265137,-3.9670000076293945 C-11.199999809265137,-3.9670000076293945 -3.687000036239624,-3.9670000076293945 -3.687000036239624,-3.9670000076293945 C-3.811000108718872,-3.313999891281128 -4.091000080108643,-2.753999948501587 -4.5269999504089355,-2.2869999408721924 C-4.931000232696533,-1.8200000524520874 -5.445000171661377,-1.4620000123977661 -6.066999912261963,-1.2130000591278076 C-6.689000129699707,-0.9639999866485596 -7.373000144958496,-0.8399999737739563 -8.119999885559082,-0.8399999737739563 C-8.119999885559082,-0.8399999737739563 -11.199999809265137,-0.8399999737739563 -11.199999809265137,-0.8399999737739563 C-11.199999809265137,-0.8399999737739563 -11.199999809265137,2.240000009536743 -11.199999809265137,2.240000009536743z"></path></g></g><g transform="matrix(1,0,0,1,60.277000427246094,-7.792431354522705)" opacity="1" style="display: none;"><g opacity="1" transform="matrix(1,0,0,1,0,0)"><path fill="rgb(7,121,76)" fill-opacity="1" d=" M4.199999809265137,9.262999534606934 C3.2039999961853027,10.942999839782715 1.7890000343322754,11.782999992370605 -0.04699999839067459,11.782999992370605 C-1.2910000085830688,11.782999992370605 -2.318000078201294,11.456000328063965 -3.127000093460083,10.803000450134277 C-3.936000108718872,10.119000434875488 -4.572999954223633,8.920999526977539 -5.039999961853027,7.210000038146973 C-5.47599983215332,5.4679999351501465 -5.692999839782715,3.056999921798706 -5.692999839782715,-0.023000000044703484 C-5.692999839782715,-3.072000026702881 -5.47599983215332,-5.452000141143799 -5.039999961853027,-7.163000106811523 C-4.604000091552734,-8.87399959564209 -3.997999906539917,-10.057000160217285 -3.2200000286102295,-10.710000038146973 C-2.4110000133514404,-11.394000053405762 -1.3839999437332153,-11.737000465393066 -0.14000000059604645,-11.737000465393066 C1.7269999980926514,-11.737000465393066 3.1570000648498535,-10.880999565124512 4.1529998779296875,-9.170000076293945 C5.179999828338623,-7.489999771118164 5.692999839782715,-4.426000118255615 5.692999839782715,0.023000000044703484 C5.692999839782715,4.4720001220703125 5.196000099182129,7.552000045776367 4.199999809265137,9.262999534606934z M-9.800000190734863,14.069999694824219 C-7.498000144958496,17.025999069213867 -4.199999809265137,18.503000259399414 0.09300000220537186,18.503000259399414 C4.355000019073486,18.503000259399414 7.60699987411499,17.055999755859375 9.847000122070312,14.163000106811523 C12.118000030517578,11.23900032043457 13.253000259399414,6.557000160217285 13.253000259399414,0.11699999868869781 C13.253000259399414,-6.385000228881836 12.10200023651123,-11.11400032043457 9.800000190734863,-14.069999694824219 C7.498000144958496,-17.025999069213867 4.215000152587891,-18.503000259399414 -0.04699999839067459,-18.503000259399414 C-4.309000015258789,-18.503000259399414 -7.576000213623047,-17.041000366210938 -9.847000122070312,-14.116999626159668 C-12.118000030517578,-11.192999839782715 -13.253000259399414,-6.526000022888184 -13.253000259399414,-0.11699999868869781 C-13.253000259399414,6.385000228881836 -12.10200023651123,11.11400032043457 -9.800000190734863,14.069999694824219z"></path></g></g><g transform="matrix(1,0,0,1,102.24500274658203,-17.1597843170166)" opacity="1" style="display: none;"><g opacity="1" transform="matrix(1,0,0,1,0,0)"><path fill="rgb(7,121,76)" fill-opacity="1" d=" M-6.672999858856201,11.993000030517578 C-4.619999885559082,13.144000053405762 -2.25600004196167,13.720000267028809 0.41999998688697815,13.720000267028809 C3.687000036239624,13.720000267028809 6.455999851226807,12.880000114440918 8.72700023651123,11.199999809265137 C11.029000282287598,9.48900032043457 12.491000175476074,7.156000137329102 13.11299991607666,4.199999809265137 C13.11299991607666,4.199999809265137 5.413000106811523,4.199999809265137 5.413000106811523,4.199999809265137 C4.822000026702881,6.71999979019165 3.1579999923706055,7.980000019073486 0.41999998688697815,7.980000019073486 C-1.4780000448226929,7.980000019073486 -3.002000093460083,7.249000072479248 -4.1529998779296875,5.7870001792907715 C-5.2729997634887695,4.324999809265137 -5.833000183105469,2.3489999771118164 -5.833000183105469,-0.14000000059604645 C-5.833000183105469,-2.566999912261963 -5.2729997634887695,-4.480000019073486 -4.1529998779296875,-5.880000114440918 C-3.002000093460083,-7.310999870300293 -1.4780000448226929,-8.027000427246094 0.41999998688697815,-8.027000427246094 C2.940000057220459,-8.027000427246094 4.572999954223633,-6.875 5.320000171661377,-4.572999954223633 C5.320000171661377,-4.572999954223633 13.020000457763672,-4.572999954223633 13.020000457763672,-4.572999954223633 C12.366999626159668,-7.373000144958496 10.904000282287598,-9.597999572753906 8.633000373840332,-11.246999740600586 C6.39300012588501,-12.895999908447266 3.6559998989105225,-13.720000267028809 0.41999998688697815,-13.720000267028809 C-2.25600004196167,-13.720000267028809 -4.619999885559082,-13.144000053405762 -6.672999858856201,-11.993000030517578 C-8.72599983215332,-10.842000007629395 -10.312999725341797,-9.239999771118164 -11.432999610900879,-7.186999797821045 C-12.553000450134277,-5.133999824523926 -13.11299991607666,-2.7839999198913574 -13.11299991607666,-0.14000000059604645 C-13.11299991607666,2.5980000495910645 -12.553000450134277,5.02400016784668 -11.432999610900879,7.139999866485596 C-10.281999588012695,9.223999977111816 -8.694999694824219,10.842000007629395 -6.672999858856201,11.993000030517578z"></path></g></g><g style="display: none;" transform="matrix(1,0,0,1,132.0399932861328,-15.360965728759766)" opacity="1"><g opacity="1" transform="matrix(1,0,0,1,0,0)"><path fill="rgb(7,121,76)" fill-opacity="1" d=" M4.5970001220703125,5.506999969482422 C3.446000099182129,6.9070000648498535 1.9210000038146973,7.60699987411499 0.023000000044703484,7.60699987411499 C-1.875,7.60699987411499 -3.4149999618530273,6.9070000648498535 -4.5970001220703125,5.506999969482422 C-5.7789998054504395,4.076000213623047 -6.369999885559082,2.193000078201294 -6.369999885559082,-0.14000000059604645 C-6.369999885559082,-2.380000114440918 -5.7789998054504395,-4.184000015258789 -4.5970001220703125,-5.552999973297119 C-3.4149999618530273,-6.953000068664551 -1.875,-7.6529998779296875 0.023000000044703484,-7.6529998779296875 C1.9210000038146973,-7.6529998779296875 3.446000099182129,-6.953000068664551 4.5970001220703125,-5.552999973297119 C5.748000144958496,-4.1529998779296875 6.322999954223633,-2.3489999771118164 6.322999954223633,-0.14000000059604645 C6.322999954223633,2.193000078201294 5.748000144958496,4.076000213623047 4.5970001220703125,5.506999969482422z M-7.117000102996826,11.993000030517578 C-5.0329999923706055,13.144000053405762 -2.6530001163482666,13.720000267028809 0.023000000044703484,13.720000267028809 C2.7300000190734863,13.720000267028809 5.110000133514404,13.144000053405762 7.163000106811523,11.993000030517578 C9.215999603271484,10.842000007629395 10.803000450134277,9.223999977111816 11.92300033569336,7.139999866485596 C13.074000358581543,5.02400016784668 13.649999618530273,2.5980000495910645 13.649999618530273,-0.14000000059604645 C13.649999618530273,-2.7839999198913574 13.074000358581543,-5.133999824523926 11.92300033569336,-7.186999797821045 C10.803000450134277,-9.239999771118164 9.201000213623047,-10.842000007629395 7.117000102996826,-11.993000030517578 C5.064000129699707,-13.144000053405762 2.6989998817443848,-13.720000267028809 0.023000000044703484,-13.720000267028809 C-2.6530001163482666,-13.720000267028809 -5.0329999923706055,-13.144000053405762 -7.117000102996826,-11.993000030517578 C-9.170000076293945,-10.842000007629395 -10.772000312805176,-9.239999771118164 -11.92300033569336,-7.186999797821045 C-13.074000358581543,-5.133999824523926 -13.649999618530273,-2.7839999198913574 -13.649999618530273,-0.14000000059604645 C-13.649999618530273,2.5980000495910645 -13.074000358581543,5.02400016784668 -11.92300033569336,7.139999866485596 C-10.772000312805176,9.223999977111816 -9.170000076293945,10.842000007629395 -7.117000102996826,11.993000030517578z"></path></g></g><g style="display: none;" transform="matrix(1,0,0,1,160.82200622558594,-9.608861923217773)" opacity="1"><g opacity="1" transform="matrix(1,0,0,1,0,0)"><path fill="rgb(7,121,76)" fill-opacity="1" d=" M-7.6529998779296875,11.38700008392334 C-5.195000171661377,12.942999839782715 -2.3489999771118164,13.720000267028809 0.8870000243186951,13.720000267028809 C3.1579999923706055,13.720000267028809 5.118000030517578,13.36299991607666 6.767000198364258,12.647000312805176 C8.446999549865723,11.930999755859375 9.722000122070312,10.920000076293945 10.593000411987305,9.61299991607666 C11.494999885559082,8.305999755859375 11.946999549865723,6.797999858856201 11.946999549865723,5.086999893188477 C11.946999549865723,3.188999891281128 11.449000358581543,1.7109999656677246 10.45300006866455,0.652999997138977 C9.456999778747559,-0.4359999895095825 8.260000228881836,-1.2130000591278076 6.860000133514404,-1.6799999475479126 C5.491000175476074,-2.1470000743865967 3.749000072479248,-2.566999912261963 1.6330000162124634,-2.940000057220459 C-0.3580000102519989,-3.2820000648498535 -1.8200000524520874,-3.6559998989105225 -2.753000020980835,-4.059999942779541 C-3.686000108718872,-4.464000225067139 -4.1529998779296875,-5.1020002365112305 -4.1529998779296875,-5.9730000495910645 C-4.1529998779296875,-6.689000129699707 -3.8259999752044678,-7.249000072479248 -3.1730000972747803,-7.6529998779296875 C-2.5199999809265137,-8.08899974822998 -1.6330000162124634,-8.307000160217285 -0.5130000114440918,-8.307000160217285 C0.7310000061988831,-8.307000160217285 1.8049999475479126,-8.01099967956543 2.7070000171661377,-7.420000076293945 C3.640000104904175,-6.828999996185303 4.2779998779296875,-5.895999908447266 4.619999885559082,-4.619999885559082 C4.619999885559082,-4.619999885559082 11.293000221252441,-4.619999885559082 11.293000221252441,-4.619999885559082 C10.826000213623047,-7.513000011444092 9.53600025177002,-9.753000259399414 7.420000076293945,-11.34000015258789 C5.335999965667725,-12.927000045776367 2.690999984741211,-13.720000267028809 -0.5130000114440918,-13.720000267028809 C-3.4690001010894775,-13.720000267028809 -5.941999912261963,-13.050999641418457 -7.933000087738037,-11.713000297546387 C-9.892999649047852,-10.406000137329102 -10.873000144958496,-8.430999755859375 -10.873000144958496,-5.7870001792907715 C-10.873000144958496,-3.9200000762939453 -10.390999794006348,-2.441999912261963 -9.427000045776367,-1.3530000448226929 C-8.463000297546387,-0.2639999985694885 -7.310999870300293,0.5130000114440918 -5.9730000495910645,0.9800000190734863 C-4.604000091552734,1.4470000267028809 -2.8929998874664307,1.8830000162124634 -0.8399999737739563,2.2869999408721924 C1.1820000410079956,2.7230000495910645 2.6600000858306885,3.1429998874664307 3.5929999351501465,3.546999931335449 C4.526000022888184,3.9509999752044678 4.993000030517578,4.619999885559082 4.993000030517578,5.552999973297119 C4.993000030517578,6.39300012588501 4.589000225067139,7.061999797821045 3.7799999713897705,7.559999942779541 C3.002000093460083,8.027000427246094 2.00600004196167,8.260000228881836 0.7929999828338623,8.260000228881836 C-0.6069999933242798,8.260000228881836 -1.8350000381469727,7.916999816894531 -2.8929998874664307,7.232999801635742 C-3.9200000762939453,6.548999786376953 -4.636000156402588,5.538000106811523 -5.039999961853027,4.199999809265137 C-5.039999961853027,4.199999809265137 -11.946999549865723,4.199999809265137 -11.946999549865723,4.199999809265137 C-11.543000221252441,7.435999870300293 -10.111000061035156,9.831000328063965 -7.6529998779296875,11.38700008392334z"></path></g></g><g style="display: none;" transform="matrix(1,0,0,1,183.34100341796875,-3.64505934715271)" opacity="1"><g opacity="1" transform="matrix(1,0,0,1,0,0)"><path fill="rgb(7,121,76)" fill-opacity="1" d=" M-2.496999979019165,16.450000762939453 C-1.4390000104904175,17.351999282836914 0.07000000029802322,17.80299949645996 2.0299999713897705,17.80299949645996 C2.0299999713897705,17.80299949645996 7.769999980926514,17.80299949645996 7.769999980926514,17.80299949645996 C7.769999980926514,17.80299949645996 7.769999980926514,12.017000198364258 7.769999980926514,12.017000198364258 C7.769999980926514,12.017000198364258 4.876999855041504,12.017000198364258 4.876999855041504,12.017000198364258 C4.130000114440918,12.017000198364258 3.631999969482422,11.845000267028809 3.382999897003174,11.503000259399414 C3.134000062942505,11.130000114440918 3.009999990463257,10.631999969482422 3.009999990463257,10.010000228881836 C3.009999990463257,10.010000228881836 3.009999990463257,-2.9170000553131104 3.009999990463257,-2.9170000553131104 C3.009999990463257,-2.9170000553131104 7.816999912261963,-2.9170000553131104 7.816999912261963,-2.9170000553131104 C7.816999912261963,-2.9170000553131104 7.816999912261963,-8.517000198364258 7.816999912261963,-8.517000198364258 C7.816999912261963,-8.517000198364258 3.009999990463257,-8.517000198364258 3.009999990463257,-8.517000198364258 C3.009999990463257,-8.517000198364258 3.009999990463257,-17.80299949645996 3.009999990463257,-17.80299949645996 C3.009999990463257,-17.80299949645996 -4.083000183105469,-17.80299949645996 -4.083000183105469,-17.80299949645996 C-4.083000183105469,-17.80299949645996 -4.083000183105469,-8.517000198364258 -4.083000183105469,-8.517000198364258 C-4.083000183105469,-8.517000198364258 -7.816999912261963,-8.517000198364258 -7.816999912261963,-8.517000198364258 C-7.816999912261963,-8.517000198364258 -7.816999912261963,-2.9170000553131104 -7.816999912261963,-2.9170000553131104 C-7.816999912261963,-2.9170000553131104 -4.083000183105469,-2.9170000553131104 -4.083000183105469,-2.9170000553131104 C-4.083000183105469,-2.9170000553131104 -4.083000183105469,12.29699993133545 -4.083000183105469,12.29699993133545 C-4.083000183105469,14.133000373840332 -3.555000066757202,15.517000198364258 -2.496999979019165,16.450000762939453z"></path></g></g><g style="display: none;" transform="matrix(1,0,0,1,198.0469970703125,27.223796844482422)" opacity="1"><g opacity="1" transform="matrix(1,0,0,1,0,0)"><path fill="rgb(7,121,76)" fill-opacity="1" d=" M-2.8469998836517334,2.8469998836517334 C-2.006999969482422,3.6559998989105225 -1.0269999504089355,4.059999942779541 0.09300000220537186,4.059999942779541 C1.1820000410079956,4.059999942779541 2.115000009536743,3.6559998989105225 2.8929998874664307,2.8469998836517334 C3.6710000038146973,2.0380001068115234 4.059999942779541,1.0729999542236328 4.059999942779541,-0.04699999839067459 C4.059999942779541,-1.1360000371932983 3.6710000038146973,-2.069000005722046 2.8929998874664307,-2.8469998836517334 C2.115000009536743,-3.6559998989105225 1.1820000410079956,-4.059999942779541 0.09300000220537186,-4.059999942779541 C-1.0269999504089355,-4.059999942779541 -2.006999969482422,-3.6710000038146973 -2.8469998836517334,-2.8929998874664307 C-3.6559998989105225,-2.115000009536743 -4.059999942779541,-1.1670000553131104 -4.059999942779541,-0.04699999839067459 C-4.059999942779541,1.0729999542236328 -3.6559998989105225,2.0380001068115234 -2.8469998836517334,2.8469998836517334z"></path></g></g><g style="display: block;" transform="matrix(1,0,0,1,32.97999954223633,242.6861114501953)" opacity="1"><g opacity="1" transform="matrix(1,0,0,1,0,0)"><path fill="rgb(7,121,76)" fill-opacity="1" d=" M-12.553000450134277,12.623000144958496 C-12.553000450134277,12.623000144958496 -12.553000450134277,18.1299991607666 -12.553000450134277,18.1299991607666 C-12.553000450134277,18.1299991607666 13.020000457763672,18.1299991607666 13.020000457763672,18.1299991607666 C13.020000457763672,18.1299991607666 13.020000457763672,11.36299991607666 13.020000457763672,11.36299991607666 C13.020000457763672,11.36299991607666 -1.399999976158142,11.36299991607666 -1.399999976158142,11.36299991607666 C-1.399999976158142,11.36299991607666 3.312999963760376,7.0229997634887695 3.312999963760376,7.0229997634887695 C5.614999771118164,4.84499979019165 7.559999942779541,2.5739998817443848 9.147000312805176,0.20999999344348907 C10.734000205993652,-2.1540000438690186 11.527000427246094,-4.704999923706055 11.527000427246094,-7.442999839782715 C11.527000427246094,-9.621000289916992 11.013999938964844,-11.519000053405762 9.987000465393066,-13.13700008392334 C8.991000175476074,-14.755000114440918 7.605999946594238,-15.982999801635742 5.833000183105469,-16.822999954223633 C4.059999942779541,-17.694000244140625 2.0380001068115234,-18.1299991607666 -0.2329999953508377,-18.1299991607666 C-4.245999813079834,-18.1299991607666 -7.357999801635742,-16.993999481201172 -9.567000389099121,-14.722999572753906 C-11.744999885559082,-12.45199966430664 -12.895999908447266,-9.138999938964844 -13.020000457763672,-4.7829999923706055 C-13.020000457763672,-4.7829999923706055 -6.206999778747559,-4.7829999923706055 -6.206999778747559,-4.7829999923706055 C-6.083000183105469,-7.178999900817871 -5.5370001792907715,-8.937000274658203 -4.572999954223633,-10.057000160217285 C-3.5769999027252197,-11.208000183105469 -2.1630001068115234,-11.782999992370605 -0.3269999921321869,-11.782999992370605 C1.3839999437332153,-11.782999992370605 2.6440000534057617,-11.331999778747559 3.453000068664551,-10.430000305175781 C4.293000221252441,-9.527999877929688 4.7129998207092285,-8.314000129699707 4.7129998207092285,-6.789999961853027 C4.7129998207092285,-5.389999866485596 4.199999809265137,-3.927000045776367 3.1730000972747803,-2.4030001163482666 C2.177000045776367,-0.8790000081062317 0.6230000257492065,0.8159999847412109 -1.4930000305175781,2.683000087738037 C-1.4930000305175781,2.683000087738037 -12.553000450134277,12.623000144958496 -12.553000450134277,12.623000144958496z"></path></g></g><g style="display: none;"><g><path></path></g></g><g style="display: none;"><g><path></path></g></g><g style="display: none;"><g><path></path></g></g><g style="display: none;"><g><path></path></g></g><g style="display: none;"><g><path></path></g></g><g style="display: none;"><g><path></path></g></g><g style="display: none;"><g><path></path></g></g><g style="display: none;"><g><path></path></g></g><g style="display: none;"><g><path></path></g></g><g style="display: none;"><g><path></path></g></g><g style="display: none;"><g><path></path></g></g><g style="display: none;"><g><path></path></g></g><g style="display: none;"><g><path></path></g></g><g style="display: none;"><g><path></path></g></g></g></svg>